<?xml version="1.0" encoding="UTF-8"?>
<svg width="162.07" height="38.076" version="1.1" viewBox="-15.18 -.066211 42.416 10.19" xmlns="http://www.w3.org/2000/svg" xmlns:cc="http://creativecommons.org/ns#" xmlns:dc="http://purl.org/dc/elements/1.1/" xmlns:rdf="http://www.w3.org/1999/02/22-rdf-syntax-ns#">
<metadata>
<rdf:RDF>
<cc:Work rdf:about="">
<dc:format>image/svg+xml</dc:format>
<dc:type rdf:resource="http://purl.org/dc/dcmitype/StillImage"/>
<dc:title/>
</cc:Work>
</rdf:RDF>
</metadata>
<path d="m24.868 9.6666a0.32801 0.3188 0 0 1-0.27834 0.29036 0.81663 0.7937 0 0 1-0.12249-0.0054 0.96226 0.93524 0 0 0-0.14019-0.0048h-2.0525a0.12318 0.11972 0 0 0-0.0735 0.0075 0.32801 0.3188 0 0 1-0.26132-0.28771q0.015-0.29764 0-0.59528c5e-3 -0.12038 0.049-0.16469 0.16741-0.17131a0.93708 0.91077 0 0 0 0.22662-0.01589 0.11501 0.11178 0 0 0 0.0776-0.17726 0.62608 0.6085 0 0 0-0.11637-0.13691q-0.43826-0.46299-0.87584-0.92598c-0.15924-0.168-0.35864-0.16866-0.51516 0-0.26676 0.29367-0.52809 0.59131-0.79145 0.88762a0.16605 0.16139 0 0 0-0.0504 0.17065c0.0286 0.06617 0.0953 0.07674 0.16265 0.07935 0.24226 0.01056 0.37769 0.14882 0.37769 0.38627v0.46829a0.34026 0.33071 0 0 1-0.28106 0.32078c-0.0163-0.0082-0.0347-0.0068-0.051-0.01385-0.71863 0.0088-1.4366 0-2.1545 0.0041h-0.35932a0.63833 0.62041 0 0 0-0.0878 0.0082 0.33414 0.32476 0 0 1-0.27221-0.31086c-0.0116-0.18917 0-0.37965 0-0.57014 0-0.0075 7e-3 -0.01453 0.0109-0.02248 0.0218 0.18453 0 0.36973 0.0102 0.55427-9e-3 -0.18453 0.0129-0.36907-0.0102-0.55361 0.0197-0.16204 0.14904-0.26457 0.3355-0.27052 0.15448-0.0048 0.31032 0.0172 0.46276-0.01722a0.94389 0.91738 0 0 0 0.50359-0.28838q0.76967-0.83338 1.5455-1.6615c0.11977-0.12765 0.11909-0.18586 0-0.31087-0.63493-0.66142-1.2712-1.3228-1.8891-2.0034a0.40355 0.39222 0 0 0-0.35864-0.1561 0.47637 0.46299 0 0 1-0.19122-0.01322 0.29943 0.29102 0 0 1-0.22866-0.2401c-0.0143-0.20372 0.0197-0.40809 0-0.61247a0.34026 0.33071 0 0 1 0.34571-0.32409h2.388a0.34026 0.33071 0 0 1 0.35456 0.32409 4.6718 4.5406 0 0 0 0 0.54501c-0.0109 0.17329-0.13611 0.29301-0.34639 0.31946-0.0626 0.0082-0.1293 0.0095-0.15584 0.07345-0.0265 0.06414 0.0129 0.13228 0.0619 0.18255 0.2586 0.27449 0.51447 0.55096 0.77579 0.82347a0.31576 0.3069 0 0 0 0.48522-0.01003q0.36748-0.40082 0.73156-0.80428a0.36884 0.35849 0 0 0 0.0578-0.08401 0.11841 0.11509 0 0 0-0.0966-0.17594c-0.049-0.0088-0.0987-0.0088-0.14768-0.01721a0.33482 0.32542 0 0 1-0.27221-0.29036c0.0252-0.08931-4e-3 -0.17858 0-0.26853v-0.33073a0.34026 0.33071 0 0 1 0.32597-0.2897h2.2662a0.35047 0.34063 0 0 1 0.34027 0.3274q5e-3 0.26457 0 0.52913a0.35728 0.34724 0 0 1-0.28719 0.32145c-0.0953 0.01851-0.19258 0-0.28786 0.02577a0.982 0.95442 0 0 0-0.5172 0.3102c-0.48998 0.53972-0.97111 1.0894-1.472 1.6185-8e-3 0.0082-0.0157 0.01657-0.0238 0.02511-0.11978 0.13228-0.11773 0.17792 7e-3 0.30954 0.57437 0.60652 1.1501 1.2111 1.721 1.8209a1.0017 0.97361 0 0 0 0.70435 0.34857 0.34026 0.33071 0 0 1 0.32257 0.30359 5.419 5.2669 0 0 0 0 0.57477z" fill="#fff" stroke-width=".06709"/>
<path d="m26.497 10.112a1.2202 1.1859 0 1 1 1.2188-1.1905 1.2141 1.18 0 0 1-1.2188 1.1905z" fill="#fff" stroke-width=".06709"/>
<path d="m17.669 9.9556 0.0524-0.03244a0.17694 0.17197 0 0 0 0.0939 0.0082h2.3757a0.18578 0.18057 0 0 1 0.0946 0.0075 0.037429 0.036378 0 0 1 0.0354 0.01721 0.19463 0.18917 0 0 1-0.11092 0.01521h-2.4213a0.22525 0.21893 0 0 1-0.11978-0.01521z" fill="#fff" stroke-width=".06709"/>
<path d="m-9.8047 6.8529c0.0265-0.02577 0.0606-0.01521 0.0919-0.01521h4.9052c0.032 0 0.0715-0.01717 0.0953 0.02248-0.0381 0-0.0762-0.0054-0.11365-0.0054h-4.8746c-0.0361 6.6e-4 -0.0701-0.0014-0.10412-2e-3z" fill="#fff" stroke-width=".06709"/>
<path d="m24.484 9.9404c0.0347 0.0054 0.0742-0.01385 0.10548 0.01657a0.16809 0.16337 0 0 1-0.10276 0.01521h-2.1777a0.22934 0.2229 0 0 1-0.11093-0.01782l0.0347-0.03111a0.89625 0.87109 0 0 0 0.22593 0.0082h1.9279a0.18714 0.18189 0 0 1 0.0973 0.0095z" fill="#fff" stroke-width=".06709"/>
<path d="m1.3689 0.18845c0.0218 0.02116 0.015 0.04825 0.015 0.07277v3.4354a0.034707 0.033732 0 0 1-0.0177 0.03244v-3.5247a0.016333 0.015874 0 0 1 3e-3 -0.01589z" fill="#fff" stroke-width=".06709"/>
<path d="m-13.427 8.4396c-0.0197-0.0185-0.015-0.04234-0.015-0.06618v-1.1634a0.040832 0.039685 0 0 1 0.0129-0.02974c0 0.02447 5e-3 0.04825 7e-3 0.07277z" fill="#fff" stroke-width=".06709"/>
<path d="m-14.024 3.1913c-0.0218 0.02113-0.0497 0.01453-0.0749 0.01453h-1.1501c-0.0252 0-0.0531 0.0068-0.0742-0.01453z" fill="#fff" stroke-width=".06709"/>
<path d="m21.763 3.4453c0.0279 0.02846 0.015 0.06618 0.0157 0.09593v0.42066c0 0.02713 0.01 0.05688-0.017 0.07935a3.617 3.5154 0 0 1 1e-3 -0.59594z" fill="#fff" stroke-width=".06709"/>
<path d="m-13.705 3.5101v0.90548h-0.0184v-0.87241c0-0.02713-9e-3 -0.05687 0.0143-0.08071z" fill="#fff" stroke-width=".06709"/>
<path d="m4.4047-0.065531c-0.0184 0.01918-0.0429 0.01453-0.068 0.01453h-0.85066c-0.0231 0-0.0476 0.0048-0.068-0.01521zm-1.7387 0c-0.0184 0.01987-0.0429 0.01521-0.0681 0.01521h-0.85066c-0.0231 0-0.0476 0.0048-0.068-0.01453z" fill="#fff" stroke-width=".06709"/>
<path d="m17.582 3.479c0.0252 0.02316 0.0157 0.0529 0.0157 0.08071v0.45043c0 0.02781 0.01 0.05756-0.0143 0.0814-0.0306-0.20372-4e-3 -0.4081-1e-3 -0.61247z" fill="#fff" stroke-width=".06709"/>
<path d="m14.646 2.936c-0.14019 0.03178-0.2831 0.0075-0.42465 0.01323-0.0388 0-0.0817 0.01385-0.11841-0.01385a2.3009 2.2362 0 0 1 0.54306 6.62e-4z" fill="#fff" stroke-width=".06709"/>
<path d="m21.94 9.0713a0.25179 0.24472 0 0 1 0.0136 0.14882c-5e-3 0.14882 0.0191 0.2983-0.0136 0.44646z" fill="#fff" stroke-width=".06709"/>
<path d="m24.868 9.6666a0.30556 0.29698 0 0 1-0.0136-0.16602c5e-3 -0.13691-0.0197-0.27581 0.0136-0.41206 7e-3 0.19247 7e-3 0.38561 0 0.57808z" fill="#fff" stroke-width=".06709"/>
<path d="m20.67 4.024c-0.0333-0.11972-0.0109-0.24142-0.0136-0.3618a0.35592 0.34592 0 0 1 0.0136-0.18321z" fill="#fff" stroke-width=".06709"/>
<path d="m-10.578 3.903c-0.032-0.03042-0.0184-0.06948-0.017-0.10384 7e-3 -0.13559-0.0197-0.2725 0.0143-0.40677q6.8e-4 0.25729 3e-3 0.51061z" fill="#fff" stroke-width=".06709"/>
<path d="m18.053 6.7001a1.08 1.0497 0 0 1 0-0.3909 1.9858 1.93 0 0 1 0 0.3909z" fill="#fff" stroke-width=".06709"/>
<path d="m-7.695 2.9353a1.0208 0.99212 0 0 1-0.38517 0 2.275 2.2111 0 0 1 0.38517 0z" fill="#fff" stroke-width=".06709"/>
<path d="m2.666-0.065531a2.1096 2.0504 0 0 1-0.32121 0.0061c-0.22049 0-0.44098 0.0095-0.66147-0.0054a0.33142 0.32211 0 0 0-0.3144 0.25332 0.28718 0.27912 0 0 1 6e-3 0.10186v3.3554-3.3635a0.12998 0.12633 0 0 0-8e-3 -0.0747 0.22525 0.21893 0 0 0-0.017 0.12368v3.3653a0.19191 0.18652 0 0 1-9e-3 0.09525c-0.9752-0.756-2.0674-1.0331-3.2795-0.7388-1.212 0.29433-2.0355 1.0397-2.5356 2.1437-0.0102-0.01919-0.0177-0.03179-0.0231-0.04428a3.6565 3.5538 0 0 0-2.0457-1.971 3.2502 3.1589 0 0 0-1.1569-0.24406 2.3485 2.2825 0 0 1-0.38518 0 2.684 2.6086 0 0 0-0.38313 0.02974 3.5163 3.4175 0 0 0-1.8374 0.73351c-0.0905 0.06618-0.16673 0.15543-0.27221 0.2057a3.4707 3.3732 0 0 1 0-0.51062 0.29739 0.28904 0 0 0-0.015-0.12567c-0.0402-0.1508-0.0905-0.18586-0.25044-0.1852a8.8938 8.6441 0 0 0-0.97043 0.0562 1.9259 1.8718 0 0 0-0.78124 0.23613c-0.42261 0.24142-0.71523 0.59527-0.93504 1.0093a0.42465 0.41272 0 0 1-0.0742 0.11178c-0.0327 0.02974-0.0558 0.02248-0.0749-0.01453a0.21437 0.20835 0 0 1-0.0129-0.09195v-0.63825a1.0398 1.0106 0 0 0-0.0102-0.24472 0.083024 0.080693 0 0 0-7e-3 0.01589v-0.06618a0.33618 0.32674 0 0 0-0.31509-0.26721 0.24975 0.24274 0 0 1-0.0953 0.0061h-1.065a0.4716 0.45836 0 0 1-0.13611-0.0061 0.34639 0.33666 0 0 0-0.33277 0.33071c-4e-3 0.16932-4e-3 0.33997-4e-3 0.51326a0.3566 0.34658 0 0 0 0.29059 0.33071 1.2699 1.2342 0 0 0 0.18578 0 0.36272 0.35254 0 0 1 0.38858 0.37767v3.6801a0.37361 0.36312 0 0 1-0.14903 0.30161 0.57028 0.55427 0 0 1-0.1715 0.07209l5e-3 0.0068s-4e-3 0.0041-6e-3 0.0041a1.2712 1.2355 0 0 1-0.22185-0.0068 0.34435 0.33468 0 0 0-0.32189 0.32674c-4e-3 0.16932 0 0.33997 0 0.50929a0.34503 0.33534 0 0 0 0.26269 0.31946 0.55123 0.53575 0 0 1 0.068-0.01192c-0.017 0-0.034 0.01056-0.051 0.01453a0.088468 0.085984 0 0 0 0.0681 0.01521h2.3417a0.34026 0.33071 0 0 0 0.3355-0.27118c0.0354-0.17064 7e-3 -0.3446 0.0156-0.51723a0.37225 0.36179 0 0 0-0.39947-0.39288c-0.23954 0.0075-0.37701-0.11839-0.40831-0.35187-0.0163-0.39685 0-0.79833-9e-3 -1.1972l9e-3 0.0034 5e-3 0.0068c0.0102-0.16072 0.0211-0.32211 0.0313-0.48283a6.9822 6.7861 0 0 1 0.14495-1.1628c0.12249-0.52252 0.4471-0.87704 0.98812-1.0265a4.2349 4.116 0 0 1 0.74858-0.11443c0.14631-0.01385 0.29263-0.02248 0.45323-0.0344l-0.0558 0.08469a3.3985 3.3031 0 0 0-0.57437 1.4968 4.3445 4.2225 0 0 0 0.0334 1.2567 3.1821 3.0928 0 0 0 0.77716 1.5874c0.73769 0.78378 1.6653 1.1853 2.7507 1.2481a4.403 4.2794 0 0 0 1.2801-0.09987c0.45323-0.1045 0.89285-0.24473 1.2828-0.50135a5.219 5.0724 0 0 0 0.982-0.86976c0.14155-0.15609 0.10004-0.33071-0.0939-0.41603-0.17217-0.07742-0.34571-0.1508-0.51992-0.2229a0.58457 0.56816 0 0 0-0.63901 0.09059 5.0958 4.9527 0 0 1-1.0453 0.64885 2.2532 2.19 0 0 1-1.4291 0.18916c-0.54442-0.10384-0.97723-0.38891-1.3291-0.7937-0.23887-0.27647-0.35864-0.61181-0.47025-0.94913a0.22253 0.21628 0 0 1-0.0102-0.10913c0.0293-0.14154 0.11773-0.20504 0.30963-0.21827a0.18578 0.18057 0 0 1 0.0864-0.0075h4.9256c0.0265 0 0.0585-0.01521 0.0803 0.01453a1.7925 1.7422 0 0 0 0.034 0.26457 3.6796 3.5763 0 0 0 5.6838 2.3811c0.11501-0.07538 0.22389-0.15874 0.34502-0.24473v0.35717a0.36544 0.35518 0 0 0 0.37497 0.35848h0.86904c0.0735 0 0.0912-0.0185 0.0912-0.08866v-9.8769c-4e-3 -0.02906 0.015-0.06085-0.0204-0.07935zm-17.938 10.013a0.076899 0.07474 0 0 0-0.0225-0.0054 0.15788 0.15345 0 0 1 0.0395 0.0054zm1.5577-6.3536v0.4954c2e-3 -0.16469-4e-3 -0.33004 0-0.4954zm7.6525 2.3024c-0.0225 0.01986-0.0504 0.01124-0.0755 0.01124h-3.6061c-0.0252 0-0.0524 0.0082-0.0762-0.01056-0.17761-0.04893-0.2409-0.1184-0.23614-0.25663a0.24907 0.24208 0 0 1 0.0313-0.1045c0.37429-0.72756 0.9718-1.1694 1.7986-1.2838 0.7758-0.10781 1.4488 0.13228 2.0001 0.67002 0.19395 0.19049 0.29467 0.4405 0.36816 0.69515 0.0395 0.13758-0.0374 0.22819-0.20415 0.27912zm5.0209 2.9169a2.3505 2.2845 0 1 1 2.3417-2.2839 2.3553 2.2892 0 0 1-2.3451 2.2839z" fill="#fff" stroke-width=".06709"/>
<path d="m-14.76 8.3887v0.06618h-0.0177v-3.6491c0-0.0324-0.0129-0.06618 0.017-0.09721a0.17081 0.16602 0 0 1 8e-3 0.08401v3.5154a0.16741 0.16271 0 0 1-7e-3 0.08071z" fill="#fff" stroke-width=".06709"/>
<path d="m-9.8196 5.8971h3.7579c-0.0204 0.03042-0.0524 0.01987-0.0796 0.01987h-3.6388c-0.0184 0-0.0388 0.01003-0.0551-0.0075v-0.0061z" fill="#fff" stroke-width=".06709"/>
<path d="m-14.76 8.3887v-3.6828c0.0286 0.02509 0.017 0.05888 0.017 0.08866v3.5055c0 0.02974 0.0116 0.06346-0.017 0.08866z" fill="#fff" stroke-width=".06709"/>
<path d="m-15.287 9.9404h2.226v0.01323c-0.0225 0-0.0449 0.0034-0.068 0.0034h-2.0668c-0.0306 0-0.0681 0.01124-0.0912-0.01657z" fill="#fff" stroke-width=".06709"/>
<path d="m18.052 6.3092a1.8857 1.8328 0 0 0-0.0483-0.42926q-0.42329-2.0087-2.3948-2.7488a3.0399 2.9545 0 0 0-0.96294-0.19512c-0.10617 0.0185-0.21233-0.0082-0.31917-0.0048a0.70571 0.68589 0 0 1-0.22389 0.0041 2.3914 2.3242 0 0 0-0.61248 0.08931q-2.1253 0.57675-2.7112 2.6457c-0.01 0.03372 0 0.07867-0.0333 0.1012-0.34026-1.2871-1.1242-2.2045-2.4288-2.6357-1.3046-0.43124-2.4975-0.17065-3.5796 0.66142v-3.4896c0-0.20834-0.14087-0.36113-0.33142-0.36907-0.19667 0.01385-0.39402 0.0048-0.59137 0.0054a3.1304 3.0425 0 0 1-0.39267-0.0095c-0.0347 0.02577-0.0163 0.06153-0.0163 0.09195v9.8617c0 0.07345 0.0218 0.0873 0.0926 0.08662 0.28106-0.0041 0.56212 0 0.84317 0 0.24567 0 0.39675-0.1475 0.39811-0.38826v-0.32409c1.0888 0.83074 2.2893 1.0887 3.5939 0.65216 1.3046-0.43654 2.0838-1.3566 2.4206-2.6596 0.0136 0.05552 0.0218 0.09388 0.032 0.13228 0.47637 1.848 2.3485 3.0293 4.2594 2.6662 1.2787-0.2434 2.1872-0.96434 2.7221-2.1165a3.2114 3.1212 0 0 0 0.28922-1.2342 2.3349 2.2693 0 0 1-5e-3 -0.39354zm-10.402 2.4472c-0.12181 0.02781-0.24703 0.03837-0.37089 0.05688a0.70911 0.6892 0 0 1-0.28582 0 2.6697 2.5947 0 0 1-0.60703-0.11906c-0.87855-0.31748-1.4209-0.92598-1.57-1.8202-0.19395-1.1853 0.57845-2.2832 1.7755-2.5709 1.2678-0.30425 2.5935 0.51789 2.8385 1.7607 0.24499 1.2428-0.51584 2.3976-1.7803 2.6906zm6.7113 0.05426a2.3567 2.2905 0 1 1 2.3594-2.2859 2.3621 2.2958 0 0 1-2.3594 2.2839z" fill="#fff" stroke-width=".06709"/>
<path d="m4.7042 0.3419c0.0245 0.01919 0.017 0.04632 0.017 0.07141v3.3071a0.029263 0.028441 0 0 1-0.017 0.02577v-0.13228a0.16128 0.15676 0 0 1-8e-3 -0.08333v-3.1087a0.1606 0.15609 0 0 1 8e-3 -0.08003z" fill="#fff" stroke-width=".06709"/>
<path d="m4.7042 0.3419v3.2733c-0.0286-0.02509-0.017-0.05886-0.017-0.08866v-3.0967c3e-3 -0.03236-0.0116-0.06282 0.017-0.08798z" fill="#fff" stroke-width=".06709"/>
<path d="m6.9934 8.812h0.2831l0.0408 0.0061c-0.12793 0.02713-0.25519 0.0088-0.39266 0.01589 0.0286-0.02645 0.0504-0.01521 0.0687-0.0218z" fill="#fff" stroke-width=".06709"/>
<path d="m20.285 9.9397h-2.4737c-0.0306 0-0.0647 0.01124-0.0905-0.01657h2.388a0.82956 0.80627 0 0 0 0.17353-0.01056c0.0531-0.01056-4e-3 0.01782 3e-3 0.02713zm4.1988 6.66e-4h-2.1491c-0.0334 0-0.0681 0.0126-0.0994-0.01657h2.1573c0.0327-2e-3 0.0653-0.01124 0.0912 0.01657z" fill="#fff" stroke-width=".06709"/>
<path d="m17.404 9.0528c5e-3 0.0095 0.0163 0.0185 0.0163 0.02845 0 0.18321 0 0.36642-0.0163 0.54964v-0.57874z" fill="#fff" stroke-width=".06709"/>
</svg>
