<svg xmlns="http://www.w3.org/2000/svg" width="24" height="24" viewBox="0 0 24 24">
    <g fill="#FFF" fill-rule="evenodd">
        <path d="M21.546 21.71a2.27 2.27 0 0 1-1.624.676c-.616 0-1.193-.24-1.625-.676l-3.848-3.886a9.512 9.512 0 0 0 3.194-3.34l3.903 3.944a2.34 2.34 0 0 1 0 3.282m-8.015-4.412l-.064.032c-.109.059-.222.11-.334.163a8.862 8.862 0 0 1-.674.29c-.079.03-.157.061-.237.089a8.246 8.246 0 0 1-1.15.31 8.39 8.39 0 0 1-.685.106c-.04.005-.08.007-.12.01a8.42 8.42 0 0 1-.788.04c-4.689 0-8.502-3.85-8.502-8.586 0-.299.016-.596.046-.89.003-.035.012-.068.015-.103.03-.261.07-.521.123-.779l.016-.063c.059-.27.129-.537.214-.8.004-.015.01-.029.015-.043a8.605 8.605 0 0 1 4.02-4.868l.063-.031c.109-.06.223-.11.335-.164A8.862 8.862 0 0 1 7.08 1.52c.19-.056.383-.107.578-.15a8.401 8.401 0 0 1 .912-.152c.04-.005.079-.007.118-.011.26-.025.523-.04.79-.04 4.688 0 8.501 3.852 8.501 8.586 0 .3-.015.597-.046.891-.004.035-.011.068-.015.102a8.67 8.67 0 0 1-.123.78l-.016.062c-.059.27-.128.537-.213.801l-.016.043a8.605 8.605 0 0 1-4.02 4.868m8.666.473l-4.114-4.156v-.001a10.087 10.087 0 0 0 .606-1.869l.04-.214c.048-.256.09-.515.117-.778l.008-.096a9.608 9.608 0 0 0-.695-4.61c-1.43-3.415-4.778-5.81-8.68-5.81-.288 0-.572.017-.853.043l-.177.016a9.19 9.19 0 0 0-1.503.298 9.35 9.35 0 0 0-.578.184l-.14.052A9.496 9.496 0 0 0 .875 5.89a8.948 8.948 0 0 0-.153.372c-.067.171-.13.344-.188.52-.036.11-.069.221-.1.334a9.59 9.59 0 0 0-.164.643c-.015.071-.027.143-.04.215-.05.256-.09.515-.118.778l-.008.095c-.028.299-.045.6-.045.906 0 5.255 4.217 9.515 9.42 9.515.289 0 .572-.017.853-.044l.177-.015a9.27 9.27 0 0 0 2.221-.535c.303-.112.597-.24.883-.38l.002-.001 4.034 4.075c.625.631 1.45.948 2.274.948.825 0 1.65-.317 2.274-.948a3.281 3.281 0 0 0 0-4.595"/>
        <path d="M9.478 1.223c-.24 0-.495.013-.784.04l-.053.005a8.25 8.25 0 0 0-.746.11c-.075.016-.15.03-.224.047a7.878 7.878 0 0 0-.917.263c-.07.024-.138.05-.206.075l-.03.012c-.232.089-.456.186-.67.288l-.108.052a4.215 4.215 0 0 0-.224.11l-.065.033a8.579 8.579 0 0 0-4 4.858l-.005.018c-.08.248-.15.508-.212.795l-.008.031-.008.032a8.51 8.51 0 0 0-.13.823l-.007.051c-.031.295-.046.593-.046.886 0 4.703 3.787 8.529 8.443 8.529.24 0 .496-.013.785-.04l.052-.004.066-.006a8.212 8.212 0 0 0 .905-.152 8.248 8.248 0 0 0 .916-.262c.068-.023.134-.048.2-.074l.037-.014a8.82 8.82 0 0 0 .668-.288l.104-.049c.077-.036.154-.072.229-.113l.064-.031a8.582 8.582 0 0 0 3.99-4.836l.017-.043c.08-.25.15-.51.211-.794l.01-.034.007-.029c.048-.23.088-.483.121-.773l.008-.051.008-.051a8.54 8.54 0 0 0 .045-.885c0-4.702-3.788-8.529-8.443-8.529zm0 17.173C4.758 18.396.92 14.52.92 9.752a8.602 8.602 0 0 1 .056-.957 8.578 8.578 0 0 1 .13-.827c.002-.013.006-.025.01-.038l.006-.026a8.46 8.46 0 0 1 .224-.83l.006-.017a8.695 8.695 0 0 1 4.046-4.901l.066-.033c.073-.04.15-.076.228-.113l.107-.05c.216-.105.444-.203.678-.293l.031-.011a8.089 8.089 0 0 1 1.138-.343c.075-.018.152-.032.228-.047.26-.05.479-.084.69-.107l.068-.006.052-.004c.292-.028.553-.041.795-.041 4.72 0 8.559 3.878 8.559 8.644a8.636 8.636 0 0 1-.055.955l-.007.045c-.034.294-.074.55-.123.784l-.01.036-.007.027a8.445 8.445 0 0 1-.214.807l-.017.043a8.694 8.694 0 0 1-4.045 4.9l-.066.033c-.075.04-.154.077-.233.114l-.102.05a8.995 8.995 0 0 1-.678.291l-.037.014a9.318 9.318 0 0 1-.551.19 8.473 8.473 0 0 1-1.499.305l-.068.006-.051.004c-.293.027-.553.04-.796.04zm5.063-.562l3.797 3.836c.42.424.983.658 1.584.658.601 0 1.163-.234 1.584-.658a2.282 2.282 0 0 0 0-3.201l-3.851-3.89a9.604 9.604 0 0 1-3.114 3.255zm5.381 4.61a2.328 2.328 0 0 1-1.666-.693l-3.898-3.938.06-.038a9.475 9.475 0 0 0 3.175-3.319l.037-.066 3.957 3.998a2.397 2.397 0 0 1 0 3.363 2.325 2.325 0 0 1-1.665.693zm-6.299-4.222l.031.03 4.035 4.074c.593.6 1.387.93 2.233.93.847 0 1.64-.33 2.233-.93a3.217 3.217 0 0 0 0-4.514l-4.13-4.173v-.044l.008-.01a10.446 10.446 0 0 0 .336-.88c.035-.108.067-.22.1-.33.068-.238.12-.447.162-.641.01-.045.018-.09.026-.135l.014-.078a9.59 9.59 0 0 0 .117-.773l.007-.095a9.428 9.428 0 0 0-.375-3.713 9.592 9.592 0 0 0-.315-.87C16.635 2.563 13.249.296 9.478.296c-.258 0-.535.015-.847.044l-.055.004-.121.011a8.757 8.757 0 0 0-1.032.177 9.077 9.077 0 0 0-1.151.345l-.024.01a9.234 9.234 0 0 0-.846.362v.022h-.046A9.444 9.444 0 0 0 .588 6.8a9.718 9.718 0 0 0-.263.972l-.03.158-.01.054a9.11 9.11 0 0 0-.117.774l-.004.057-.003.037a9.46 9.46 0 0 0-.045.901c0 5.215 4.2 9.458 9.362 9.458.258 0 .535-.015.848-.044l.054-.004.122-.012a9.044 9.044 0 0 0 1.493-.296 9.088 9.088 0 0 0 .714-.235c.3-.112.595-.239.877-.378l.037-.019zm6.3 5.15c-.878 0-1.7-.343-2.316-.965l-4.005-4.045a9.614 9.614 0 0 1-.852.365l-.142.052c-.2.071-.39.132-.581.185a9.28 9.28 0 0 1-.789.19 9.202 9.202 0 0 1-.848.122l-.054.005c-.316.03-.597.044-.858.044C4.252 19.325 0 15.03 0 9.752c0-.29.015-.587.046-.91l.002-.036.006-.062c.026-.245.064-.501.118-.782l.01-.054c.01-.054.019-.108.03-.161.043-.197.095-.403.165-.649.032-.112.065-.224.1-.335a9.95 9.95 0 0 1 .344-.897 9.558 9.558 0 0 1 4.465-4.69l.032-.015c.287-.142.586-.27.889-.384l.024-.009.117-.043c.2-.07.39-.132.581-.185a8.988 8.988 0 0 1 1.513-.3l.124-.012.054-.005c.317-.029.597-.043.858-.043 3.818 0 7.246 2.295 8.733 5.846a9.64 9.64 0 0 1 .7 4.638l-.008.096a9.57 9.57 0 0 1-.119.782l-.013.077c-.01.047-.017.093-.027.139a11.284 11.284 0 0 1-.265.984 9.776 9.776 0 0 1-.329.86l4.088 4.13a3.334 3.334 0 0 1 0 4.675 3.234 3.234 0 0 1-2.316.965z"/>
    </g>
</svg>
